<svg width="24" height="24" viewBox="0 0 24 24" fill="none" xmlns="http://www.w3.org/2000/svg">
<path d="M12 21.9999C17.5138 21.9999 22 17.5137 22 11.9999C22.0014 11.9005 21.983 11.8018 21.946 11.7096C21.9089 11.6173 21.8539 11.5334 21.7841 11.4626C21.7143 11.3919 21.6312 11.3356 21.5395 11.2973C21.4478 11.2589 21.3494 11.2392 21.25 11.2392C21.1506 11.2392 21.0522 11.2589 20.9605 11.2973C20.8688 11.3356 20.7856 11.3919 20.7159 11.4626C20.6461 11.5334 20.5911 11.6173 20.554 11.7096C20.5169 11.8018 20.4986 11.9005 20.5 11.9999C20.5 16.703 16.7031 20.4999 12 20.4999C7.29684 20.4999 3.49999 16.703 3.49999 11.9999C3.50139 11.9005 3.48303 11.8018 3.44597 11.7096C3.40891 11.6173 3.35389 11.5334 3.28411 11.4626C3.21432 11.3919 3.13117 11.3356 3.03948 11.2973C2.94778 11.2589 2.84938 11.2392 2.74999 11.2392C2.65059 11.2392 2.55219 11.2589 2.4605 11.2973C2.3688 11.3356 2.28565 11.3919 2.21587 11.4626C2.14608 11.5334 2.09106 11.6173 2.054 11.7096C2.01694 11.8018 1.99858 11.9005 1.99999 11.9999C1.99999 17.5137 6.48613 21.9999 12 21.9999ZM20.7978 9.88071C20.9967 9.88071 21.1875 9.8017 21.3282 9.66105C21.4688 9.52039 21.5478 9.32963 21.5478 9.13071C21.5478 8.9318 21.4688 8.74104 21.3282 8.60038C21.1875 8.45973 20.9967 8.38071 20.7978 8.38071C20.5989 8.38071 20.4082 8.45973 20.2675 8.60038C20.1269 8.74104 20.0478 8.9318 20.0478 9.13071C20.0478 9.32963 20.1269 9.52039 20.2675 9.66105C20.4082 9.8017 20.5989 9.88071 20.7978 9.88071V9.88071ZM4.51464 7.31431C4.71355 7.31431 4.90431 7.23529 5.04497 7.09464C5.18562 6.95399 5.26464 6.76322 5.26464 6.56431C5.26464 6.3654 5.18562 6.17463 5.04497 6.03398C4.90431 5.89333 4.71355 5.81431 4.51464 5.81431C4.31572 5.81431 4.12496 5.89333 3.9843 6.03398C3.84365 6.17463 3.76464 6.3654 3.76464 6.56431C3.76464 6.76322 3.84365 6.95399 3.9843 7.09464C4.12496 7.23529 4.31572 7.31431 4.51464 7.31431ZM19.4785 7.30454C19.6774 7.30454 19.8682 7.22553 20.0088 7.08487C20.1495 6.94422 20.2285 6.75345 20.2285 6.55454C20.2285 6.35563 20.1495 6.16486 20.0088 6.02421C19.8682 5.88356 19.6774 5.80454 19.4785 5.80454C19.2796 5.80454 19.0888 5.88356 18.9482 6.02421C18.8075 6.16486 18.7285 6.35563 18.7285 6.55454C18.7285 6.75345 18.8075 6.94422 18.9482 7.08487C19.0888 7.22553 19.2796 7.30454 19.4785 7.30454ZM6.56053 5.26548C6.75944 5.26548 6.95021 5.18646 7.09086 5.04581C7.23152 4.90516 7.31053 4.71439 7.31053 4.51548C7.31053 4.31657 7.23152 4.1258 7.09086 3.98515C6.95021 3.8445 6.75944 3.76548 6.56053 3.76548C6.36162 3.76548 6.17085 3.8445 6.0302 3.98515C5.88955 4.1258 5.81053 4.31657 5.81053 4.51548C5.81053 4.71439 5.88955 4.90516 6.0302 5.04581C6.17085 5.18646 6.36162 5.26548 6.56053 5.26548ZM17.4307 5.26255C17.6296 5.26255 17.8203 5.18353 17.961 5.04288C18.1016 4.90223 18.1806 4.71146 18.1806 4.51255C18.1806 4.31364 18.1016 4.12287 17.961 3.98222C17.8203 3.84157 17.6296 3.76255 17.4307 3.76255C17.2317 3.76255 17.041 3.84157 16.9003 3.98222C16.7597 4.12287 16.6807 4.31364 16.6807 4.51255C16.6807 4.71146 16.7597 4.90223 16.9003 5.04288C17.041 5.18353 17.2317 5.26255 17.4307 5.26255V5.26255ZM9.13768 3.95103C9.33659 3.95103 9.52736 3.87201 9.66801 3.73136C9.80866 3.59071 9.88768 3.39994 9.88768 3.20103C9.88768 3.00211 9.80866 2.81135 9.66801 2.6707C9.52736 2.53004 9.33659 2.45103 9.13768 2.45103C8.93877 2.45103 8.748 2.53004 8.60735 2.6707C8.4667 2.81135 8.38768 3.00211 8.38768 3.20103C8.38768 3.39994 8.4667 3.59071 8.60735 3.73136C8.748 3.87201 8.93877 3.95103 9.13768 3.95103ZM14.8525 3.94907C15.0514 3.94907 15.2422 3.87006 15.3829 3.7294C15.5235 3.58875 15.6025 3.39799 15.6025 3.19907C15.6025 3.00016 15.5235 2.8094 15.3829 2.66874C15.2422 2.52809 15.0514 2.44907 14.8525 2.44907C14.6536 2.44907 14.4628 2.52809 14.3222 2.66874C14.1815 2.8094 14.1025 3.00016 14.1025 3.19907C14.1025 3.39799 14.1815 3.58875 14.3222 3.7294C14.4628 3.87006 14.6536 3.94907 14.8525 3.94907ZM12 3.49986C12.1989 3.49986 12.3897 3.42084 12.5303 3.28019C12.671 3.13953 12.75 2.94877 12.75 2.74986C12.75 2.55094 12.671 2.36018 12.5303 2.21952C12.3897 2.07887 12.1989 1.99986 12 1.99986C11.8011 1.99986 11.6103 2.07887 11.4697 2.21952C11.329 2.36018 11.25 2.55094 11.25 2.74986C11.25 2.94877 11.329 3.13953 11.4697 3.28019C11.6103 3.42084 11.8011 3.49986 12 3.49986Z" fill="#222226"/>
</svg>
